#N canvas 448 102 866 607 10;
#X obj 219 248 *~;
#X obj 175 276 +~;
#X floatatom 237 218 0 0 0 0 - - - 0;
#X obj 194 142 osc~;
#X obj 120 231 r mouseX;
#X obj 193 109 r mouseY;
#X obj 177 301 osc~;
#X obj 270 33 r cycle;
#X obj 527 544 dac~;
#X obj 635 288 vd~ DEL;
#X obj 453 290 vd~ DEL;
#X obj 453 317 *~ 0.5;
#X obj 634 314 *~ 0.5;
#X obj 453 242 *~ 10;
#X obj 454 266 +~ 15;
#X obj 635 241 *~ 10;
#X obj 636 264 +~ 15;
#X obj 227 403 *~;
#X obj 319 305 line~;
#X obj 293 110 loadbang;
#X obj 292 200 t b b;
#X msg 319 231 0;
#X msg 350 257 0 10;
#X obj 350 231 del 10;
#X obj 636 218 osc~ 0.9;
#X obj 293 167 metro 500;
#X msg 283 231 1 100;
#X obj 453 218 osc~ 0.1;
#X obj 178 534 delwrite~ DEL 100;
#X connect 0 0 1 1;
#X connect 1 0 6 0;
#X connect 2 0 0 1;
#X connect 3 0 0 0;
#X connect 4 0 1 0;
#X connect 5 0 3 0;
#X connect 6 0 17 0;
#X connect 7 0 2 0;
#X connect 9 0 8 1;
#X connect 9 0 12 0;
#X connect 10 0 8 0;
#X connect 10 0 11 0;
#X connect 11 0 28 0;
#X connect 12 0 28 0;
#X connect 13 0 14 0;
#X connect 14 0 10 0;
#X connect 15 0 16 0;
#X connect 16 0 9 0;
#X connect 17 0 28 0;
#X connect 18 0 17 1;
#X connect 19 0 25 0;
#X connect 20 0 26 0;
#X connect 20 0 23 0;
#X connect 20 1 21 0;
#X connect 21 0 18 0;
#X connect 22 0 18 0;
#X connect 23 0 22 0;
#X connect 24 0 15 0;
#X connect 25 0 20 0;
#X connect 26 0 18 0;
#X connect 27 0 13 0;
